<svg xmlns="http://www.w3.org/2000/svg" viewBox="0 0 691.23 882.63"><defs><style>.cls-1{fill:#fff;}</style></defs><g id="Layer_2" data-name="Layer 2"><g id="Layer_1-2" data-name="Layer 1"><path d="M620.13,441.31V361.8c-23.9-12.47-44.35-25.87-67.48-37.95.17-28.28,0-55.21,0-81.94-46-28.57-96.42-49.83-140.71-79.61V81.94C364.27,61.13,321,27.37,275.72,0V81.94L137.27,162.3v79.61L68.11,282.1v79.7L0,401.64v78.85c22.79,13.35,45,26.6,68.11,40.16v79.68c23.4,13.62,46.55,26.81,69.43,40.12v79.68l138.18,80v82.46c13.37-8.52,330.13-192.2,344.41-200.51,0-27.39-.27-54.51,0-81.79,5-3.15,61.31-33.31,71.1-39.11V480.49C668,468.24,644.54,454.18,620.13,441.31Zm-15.06,90.57c-7.35,4.36-49.66,27-53.38,29.36-.2,20.48,0,40.84,0,61.4C541,628.88,303.18,766.77,293.14,773.16v-61.9L189.41,651.18V591.36c-17.18-10-34.55-19.9-52.12-30.12V501.42c-17.38-10.18-34-20.12-51.13-30.14V412.09l51.13-29.91V322.35l51.92-30.17V232.41l103.93-60.32V110.58c34,20.54,66.48,45.89,102.26,61.51v60.32c33.25,22.36,71.07,38.32,105.64,59.77,0,20.06.13,40.28,0,61.51,17.36,9.07,32.71,19.12,50.65,28.49v59.69c18.33,9.66,35.94,20.22,53.38,29.41Z"/><path class="cls-1" d="M551.69,441.31V381.62c-17.94-9.36-33.29-19.42-50.65-28.49.13-21.23,0-41.44,0-61.51-34.57-21.45-72.39-37.41-105.63-59.76V171.53c-35.79-15.62-68.28-41-102.27-61.51v61.51L189.21,231.86v59.76l-51.92,30.17v59.83L86.16,411.53v59.19c17.11,10,33.74,20,51.13,30.15v59.82c17.57,10.22,35,20.12,52.12,30.12v59.81l103.73,60.09v61.9c10-6.39,247.83-144.28,258.55-150.52,0-20.56-.2-40.92,0-61.4,3.73-2.37,46-25,53.38-29.36V470.72C587.63,461.53,570,451,551.69,441.31Zm-11.3,68c-5.52,3.28-37.28,20.27-40.07,22-.15,15.38,0,30.66,0,46.1-8,4.68-186.56,108.2-194.1,113V644l-77.87-45.1V554c-12.9-7.5-25.94-14.93-39.13-22.61v-44.9c-13-7.65-25.53-15.11-38.38-22.63V419.38l38.38-22.46V352l39-22.65V284.49l78-45.28V193c25.52,15.42,49.91,34.45,76.77,46.18v45.28c25,16.78,53.35,28.77,79.3,44.87,0,15.06.1,30.24,0,46.17,13,6.81,24.56,14.36,38,21.39v44.81c13.76,7.25,27,15.18,40.07,22.08Z"/><path class="cls-1" d="M461.94,441.31V407.62c-10.13-5.29-18.79-11-28.59-16.08.07-12,0-23.4,0-34.73-19.51-12.1-40.86-21.11-59.63-33.73V289c-20.2-8.81-38.54-23.12-57.73-34.72V289l-58.67,34.06v33.73c-9.87,5.75-19.49,11.33-29.3,17v33.78L199.15,424.5v33.42c9.66,5.65,19,11.27,28.87,17V508.7c9.91,5.77,19.72,11.36,29.42,17v33.77L316,593.39v34.94c5.67-3.61,139.9-81.45,146-85,0-11.61-.11-23.1,0-34.66,2.1-1.33,26-14.12,30.13-16.57V457.92C482.23,452.72,472.29,446.77,461.94,441.31Zm-6.38,38.38c-3.11,1.85-21,11.44-22.62,12.44-.08,8.68,0,17.31,0,26-4.54,2.65-105.31,61.08-109.56,63.79V555.71l-44-25.46V504.9c-7.28-4.23-14.64-8.43-22.09-12.77V466.79c-7.36-4.32-14.41-8.53-21.67-12.78V428.93l21.67-12.67V390.9l22-12.78V352.79l44.05-25.56V301.16c14.4,8.7,28.17,19.45,43.33,26.07v25.56c14.09,9.47,30.12,16.24,44.77,25.33,0,8.5,0,17.07,0,26.06,7.35,3.85,13.86,8.1,21.46,12.08v25.29c7.77,4.09,15.23,8.57,22.62,12.46Z"/><path d="M500.32,441.31V396.5c-13.47-7-25-14.58-38-21.38.1-15.94,0-31.12,0-46.18-26-16.1-54.34-28.08-79.3-44.87V238.79c-26.86-11.73-51.25-30.76-76.77-46.18v46.18l-78,45.28v44.87l-39,22.65V396.5L150.84,419v44.43c12.84,7.53,25.33,15,38.38,22.63v44.91c13.19,7.67,26.24,15.11,39.13,22.61v44.9l77.87,45.11V690c7.54-4.8,186-108.31,194.1-113,0-15.43-.15-30.72,0-46.09,2.79-1.78,34.55-18.77,40.07-22v-45.5C527.3,456.49,514.08,448.56,500.32,441.31Zm-8.49,51c-4.14,2.46-28,15.22-30.08,16.55-.11,11.54,0,23,0,34.6-6,3.52-140,81.23-145.71,84.83V593.44l-58.46-33.85V525.87c-9.68-5.63-19.47-11.21-29.37-17V475.19c-9.79-5.74-19.17-11.34-28.81-17V424.84L228.21,408V374.27l29.26-17V323.58l58.57-34V254.93c19.16,11.57,37.47,25.86,57.63,34.66v34c18.74,12.61,40.05,21.6,59.54,33.69,0,11.3.07,22.7,0,34.66C443,397,451.64,402.71,461.75,408v33.64C472.08,447.07,482,453,491.83,458.2Z"/><path d="M431.77,443.43v-25c-7.5-3.91-13.91-8.12-21.17-11.91,0-8.88,0-17.33,0-25.72-14.45-9-30.27-15.64-44.17-25V330.63c-15-6.53-28.54-17.12-42.75-25.71v25.71l-43.46,25.23v25l-21.7,12.62v25L237.14,431v24.74c7.15,4.19,14.11,8.35,21.38,12.61v25c7.34,4.27,14.61,8.41,21.79,12.59v25l43.37,25.12v25.88c4.19-2.67,103.61-60.32,108.09-62.93,0-8.6-.08-17.11,0-25.67,1.56-1,19.25-10.46,22.32-12.28V455.72C446.8,451.88,439.44,447.47,431.77,443.43Zm-4.72,28.42c-2.31,1.37-15.59,8.48-16.76,9.22-.06,6.43,0,12.82,0,19.27-3.36,2-78,45.24-81.14,47.24V528.15L296.59,509.3V490.52c-5.39-3.13-10.85-6.24-16.36-9.45V462.29c-5.45-3.19-10.68-6.31-16.05-9.46V434.25l16.05-9.38V406.09l16.3-9.47V377.86l32.62-18.93V339.62c10.66,6.45,20.86,14.41,32.09,19.31v18.93c10.44,7,22.31,12,33.16,18.76,0,6.3,0,12.64,0,19.31,5.45,2.84,10.26,6,15.89,8.94V443.6c5.76,3,11.28,6.35,16.76,9.23Z"/></g></g></svg>